{"title":"Notorious.2009.DVDrip - www.AppTracker.org","uid":4819637,"size":1054277151,"categoryP":"video","categoryS":"movies","magnet":"?xt=urn:btih:bdab72e9f06284740f9a211033dad2fdce0f0088&amp;dn=Notorious.2009.DVDrip+-+www.AppTracker.org&amp;tr=udp%3A%2F%2Ftracker.openbittorrent.com%3A80&amp;tr=udp%3A%2F%2Fopen.demonii.com%3A1337&amp;tr=udp%3A%2F%2Ftracker.coppersurfer.tk%3A6969&amp;tr=udp%3A%2F%2Fexodus.desync.com%3A6969","seeders":5,"leechers":0,"uploader":"sobe1200","files":9,"time":1238717734,"description":"-----&gt;&gt;&gt;Brought to you by www.AppTracker.org [Private Torrent Tracker]\nRegistration Status: Open\n\n\n\nIf downloading is slow try http://www.apptracker.org/torrents.php?id=202 We have had it upped longer there so there may be more seeders.\n\n\n\n\nGot questions join us on irc! \n\nirc.p2p-network.net #apptracker\n\n\n\n\n\nNOTORIOUS is the story of Christopher Wallace. Through raw talent and sheer determination, Wallace transforms himself from Brooklyn street hustler (once selling crack to pregnant women) to one of the greatest rappers of all time; THE NOTORIOUS B.I.G. Follow his meteoric rise to fame and his refusal to succumb to expectations - redefining our notion of &quot;The American Dream.&quot;\n\nLink: http://www.imdb.com/title/tt0472198/\n\nFormat : AVI\nFormat/Info : Audio Video Interleave\nFile size : 1 001 MiB\nDuration : 2h 2mn\nOverall bit rate : 1 138 Kbps\nMovie name : Notorious\nWriting application : MEncoder 2:1.0~rc2-0ubuntu13.1\nWriting library : MPlayer\nOriginal source form : DVD ripped by acidrip.sf.net\n\nVideo\nFormat : MPEG-4 Visual\nFormat profile : Streaming Video@L1\nFormat settings, BVOP : Yes\nFormat settings, QPel : No\nFormat settings, GMC : No warppoints\nFormat settings, Matrix : Default (MPEG)\nCodec ID : XVID\nCodec ID/Hint : XviD\nDuration : 2h 2mn\nBit rate : 684 Kbps\nWidth : 480 pixels\nHeight : 202 pixels\nDisplay aspect ratio : 2.35\nFrame rate : 29.970 fps\nResolution : 24 bits\nColorimetry : 4:2:0\nScan type : Progressive\nBits/(Pixel*Frame) : 0.235\nStream size : 602 MiB (60%)\nWriting library : XviD 1.1.2 (UTC 2006-11-01)\n\nAudio\nFormat : AC-3\nFormat/Info : Audio Coding 3\nCodec ID : 2000\nDuration : 2h 2mn\nBit rate mode : Constant\nBit rate : 448 Kbps\nChannel(s) : 6 channels\nChannel positions : Front: L C R, Surround: L R, LFE\nSampling rate : 48.0 KHz\nResolution : 16 bits\nStream size : 394 MiB (39%)\nAlignment : Split accross interleaves\nInterleave, duration : 500 ms (14.98 video frames)\nInterleave, preload duration : 500 ms\n\n\nGot this from a private source\n\nEnjoy - www.AppTracker.org\n\nDo what ya want with it... Have a Blast ","torrent":{"xt":"urn:btih:bdab72e9f06284740f9a211033dad2fdce0f0088","amp;dn":"Notorious.2009.DVDrip+-+www.AppTracker.org","amp;tr":["udp%3A%2F%2Ftracker.openbittorrent.com%3A80","udp%3A%2F%2Fopen.demonii.com%3A1337","udp%3A%2F%2Ftracker.coppersurfer.tk%3A6969","udp%3A%2F%2Fexodus.desync.com%3A6969"],"infoHash":"bdab72e9f06284740f9a211033dad2fdce0f0088","infoHashBuffer":{"type":"Buffer","data":[189,171,114,233,240,98,132,116,15,154,33,16,51,218,210,253,206,15,0,136]},"announce":[],"urlList":[]}}